# xmcd
# 
# Track frame offsets:
#     150
#     18934
#     38557
#     58713
#     79633
#     96257
#     116628
#     130738
# 
# Disc length: 1964
# 
# Revision: 5
# Processed by: cddbd v1.5.2PL0 Copyright (c) Steve Scherf et al.
# Submitted via: fre:ac v1.0.17
# 
DISCID=5b07aa08
DTITLE=Beyoncé - I Am... Sasha Fierce - Deluxe Edition - Disc 1
DYEAR=2008
DGENRE=R&B
TTITLE0=If I Were A Boy
TTITLE1=Halo
TTITLE2=Disappear
TTITLE3=Broken-Hearted Girl
TTITLE4=Ave Maria
TTITLE5=Smash Into You
TTITLE6=Satellites
TTITLE7=That's Why You're Beautiful
EXTD=YEAR: 2008
EXTT0=
EXTT1=
EXTT2=
EXTT3=
EXTT4=
EXTT5=
EXTT6=
EXTT7=
PLAYORDER=
